<svg width="96" height="96" xmlns="http://www.w3.org/2000/svg" xmlns:xlink="http://www.w3.org/1999/xlink" xml:space="preserve" overflow="hidden"><defs><clipPath id="clip0"><rect x="592" y="312" width="96" height="96"/></clipPath></defs><g clip-path="url(#clip0)" transform="translate(-592 -312)"><path d="M663.5 335C661 335 659 337 659 339.4 659 339.4 659 339.4 659 339.4L659 359C659 359.6 658.6 360 658 360 657.4 360 657 359.6 657 359L657 329.7C657 327.3 655.3 325.3 652.9 325 650.2 324.7 648 326.8 648 329.5L648 359C648 359.6 647.6 360 647 360 646.4 360 646 359.6 646 359L646 323.4 646 323.4C645.9 320.9 643.8 319 641.4 319.1 639 319.1 637.1 321 637 323.4L637 323.4 637 359C637 359.6 636.6 360 636 360 635.4 360 635 359.6 635 359L635 329.5C634.9 327 632.8 325.1 630.4 325.2 628 325.3 626.1 327.2 626.1 329.5L626.1 369.6C626.1 369.7 625.9 369.7 625.9 369.6L621.9 352C621.3 349.3 618.6 347.6 615.9 348.2 613.2 348.8 611.5 351.5 612.1 354.2L618.1 381.2C618.4 382.3 619.1 383.3 620 384L631 392.5 631 400 660 400 660 395C660 387.9 668 387.4 668 374L668 339.5C668 337 666 335 663.5 335 663.5 335 663.5 335 663.5 335L663.5 335Z"/></g></svg>